<svg xmlns="http://www.w3.org/2000/svg" width="100%" height="100%" viewBox="0 0 30 40">
  <path fill="#808080" d="M973,1 C980.922612,1 985,6.24235593 985,16 L985,16 L985,18.999 L986.5,19 C987.279696,19 987.920449,19.5948881 987.993133,20.35554 L988,20.5 L988,39.5 C988,40.3284271 987.328427,41 986.5,41 L986.5,41 L959.5,41 C958.671573,41 958,40.3284271 958,39.5 L958,39.5 L958,20.5 C958,19.6715729 958.671573,19 959.5,19 L959.5,19 L961,18.999 L961,16 C961,6.37787876 964.964914,1.146492 972.672117,1.00303182 Z M962.458795,21.999445 L961,21.999 L961,37.999 L985,37.999 L985,21.999 L983.541,21.998 L983.5,22 L962.5,22 C962.486221,22 962.472485,21.9998142 962.458795,21.999445 Z M973,27.5 C974.380712,27.5 975.5,28.6192881 975.5,30 C975.5,31.3807119 974.380712,32.5 973,32.5 C971.619288,32.5 970.5,31.3807119 970.5,30 C970.5,28.6192881 971.619288,27.5 973,27.5 Z M973,4 C966.922612,4 964,7.75764407 964,16 L964,16 L964,18.999 L982,18.999 L982,16 C982,8.01930616 979.260005,4.24310032 973.569268,4.01138424 L973.287016,4.00284315 Z" transform="translate(-958 -1)"/>
</svg>
