<svg xmlns="http://www.w3.org/2000/svg" width="100%" height="100%" viewBox="0 0 40 40">
  <path fill="#808080" d="M1191.5,38 C1192.32843,38 1193,38.6715729 1193,39.5 C1193,40.3284271 1192.32843,41 1191.5,41 L1154.5,41 C1153.67157,41 1153,40.3284271 1153,39.5 C1153,38.6715729 1153.67157,38 1154.5,38 L1191.5,38 Z M1175.93934,1.43933983 C1176.5224,0.856279582 1177.46676,0.853169737 1178.05365,1.43237728 L1178.05365,1.43237728 L1184.63984,7.93237728 C1185.22835,8.51318445 1185.23587,9.46069922 1184.65665,10.0507708 L1184.65665,10.0507708 L1162.57046,32.5507708 C1162.2884,32.8381182 1161.90265,32.9999999 1161.5,32.9999999 L1161.5,32.9999999 L1154.5,32.9999999 C1153.67157,32.9999999 1153,32.3284271 1153,31.4999999 L1153,31.4999999 L1153,24.9999999 C1153,24.6021753 1153.15804,24.2206444 1153.43934,23.9393398 L1153.43934,23.9393398 Z M1172.729,8.89099995 L1156,25.62 L1156,30 L1160.87,30 L1177.16,13.4039999 L1172.729,8.89099995 Z M1177.006,4.614 L1174.851,6.76899995 L1179.261,11.2629999 L1181.467,9.016 L1177.006,4.614 Z" transform="translate(-1153 -1)"/>
</svg>
