<svg xmlns="http://www.w3.org/2000/svg" width="100%" height="100%" viewBox="0 0 39 40">
  <path d="M1074.355,39.1534 C1064.16,39.1534 1055.8934,31.5716 1055.8934,22.2216 C1055.8934,13.32 1063.3834,6.0234 1072.8984,5.3416 C1072.9216,5.34 1072.94,5.34 1072.9634,5.3384 L1072.9634,5.3334 C1074.1516,5.3234 1075.1116,4.3584 1075.1116,3.1666 C1075.1116,1.97 1074.1416,1 1072.945,1 C1072.915,1 1072.885,1.0084 1072.855,1.0084 C1061.8766,1.0816 1053,10.005 1053,21.0016 C1053,32.0466 1061.9484,41 1072.99,41 C1081.74,41 1089.1816,35.3834 1091.8916,27.5534 C1089.46,34.295 1082.5216,39.1534 1074.355,39.1534" transform="translate(-1053 -1)"/>
</svg>
