<svg xmlns="http://www.w3.org/2000/svg" width="100%" height="100%" viewBox="0 0 41 34">
  <path fill="#808080" d="M791.504043,6 C792.33247,6 793.004043,6.67157288 793.004043,7.5 L793.004043,7.5 L793.004043,38.5 C793.004043,39.3284271 792.33247,40 791.504043,40 L791.504043,40 L754.5,40 C753.671573,40 753,39.3284271 753,38.5 L753,38.5 L753,7.5 C753,6.67157288 753.671573,6 754.5,6 L754.5,6 Z M767.987,25.312 L758.145,36.999 L787.852,36.999 L777.997,25.323 L773.862112,28.2275025 C773.387859,28.5605848 772.768837,28.5883118 772.270485,28.3106974 L772.137762,28.2274139 L767.987,25.312 Z M790.004,16.89 L780.462,23.591 L790.004,34.897 L790.004,16.89 Z M755.999,16.89 L755.999,34.89 L765.522,23.58 L755.999,16.89 Z M790.004,9 L755.999,9 L755.999,13.223 L773,25.166 L790.004,13.223 L790.004,9 Z" transform="translate(-753 -6)"/>
</svg>
